<?xml version="1.0" encoding="UTF-8" standalone="no"?>
<svg
   xmlns:dc="http://purl.org/dc/elements/1.1/"
   xmlns:cc="http://creativecommons.org/ns#"
   xmlns:rdf="http://www.w3.org/1999/02/22-rdf-syntax-ns#"
   xmlns:svg="http://www.w3.org/2000/svg"
   xmlns="http://www.w3.org/2000/svg"
   xmlns:sodipodi="http://sodipodi.sourceforge.net/DTD/sodipodi-0.dtd"
   xmlns:inkscape="http://www.inkscape.org/namespaces/inkscape"
   width="936"
   height="665"
   xml:space="preserve"
   overflow="hidden"
   version="1.1"
   id="svg842"
   sodipodi:docname="logo.svg"
   style="overflow:hidden"
   inkscape:version="0.92.4 (5da689c313, 2019-01-14)"><metadata
     id="metadata846"><rdf:RDF><cc:Work
         rdf:about=""><dc:format>image/svg+xml</dc:format><dc:type
           rdf:resource="http://purl.org/dc/dcmitype/StillImage" /><dc:title></dc:title></cc:Work></rdf:RDF></metadata><sodipodi:namedview
     pagecolor="#ffffff"
     bordercolor="#666666"
     borderopacity="1"
     objecttolerance="10"
     gridtolerance="10"
     guidetolerance="10"
     inkscape:pageopacity="0"
     inkscape:pageshadow="2"
     inkscape:window-width="1920"
     inkscape:window-height="1001"
     id="namedview844"
     showgrid="false"
     inkscape:zoom="0.48874446"
     inkscape:cx="465.10944"
     inkscape:cy="495.41184"
     inkscape:window-x="-9"
     inkscape:window-y="-9"
     inkscape:window-maximized="1"
     inkscape:current-layer="svg842"
     fit-margin-top="0"
     fit-margin-left="0"
     fit-margin-right="0"
     fit-margin-bottom="0" /><defs
     id="defs818"><clipPath
       id="clip0"><rect
         x="1615"
         y="653"
         width="1170"
         height="1169"
         id="rect815" /></clipPath></defs><g
     id="g917"
     transform="translate(-117,-252)"><g
       id="g840"
       transform="translate(-1615,-639)"
       clip-path="url(#clip0)"><path
         style="fill:#61186d;fill-rule:evenodd"
         inkscape:connector-curvature="0"
         id="path820"
         d="m 2452,909.378 c 0,-10.15 8.23,-18.378 18.38,-18.378 h 179.24 c 10.15,0 18.38,8.228 18.38,18.378 v 54.245 c 0,10.149 -8.23,18.377 -18.38,18.377 h -179.24 c -10.15,0 -18.38,-8.228 -18.38,-18.377 z" /><path
         style="fill:#61186d;fill-rule:evenodd"
         inkscape:connector-curvature="0"
         id="path822"
         d="m 2452,1053.38 c 0,-10.15 8.23,-18.38 18.38,-18.38 h 179.24 c 10.15,0 18.38,8.23 18.38,18.38 v 54.24 c 0,10.15 -8.23,18.38 -18.38,18.38 h -179.24 c -10.15,0 -18.38,-8.23 -18.38,-18.38 z" /><path
         style="fill:#61186d;fill-rule:evenodd"
         inkscape:connector-curvature="0"
         id="path824"
         d="m 2452,1196.38 c 0,-10.15 8.23,-18.38 18.38,-18.38 h 179.24 c 10.15,0 18.38,8.23 18.38,18.38 v 54.24 c 0,10.15 -8.23,18.38 -18.38,18.38 h -179.24 c -10.15,0 -18.38,-8.23 -18.38,-18.38 z" /><path
         style="fill:#61186d;fill-rule:evenodd"
         inkscape:connector-curvature="0"
         id="path826"
         d="m 2452,1340.38 c 0,-10.15 8.23,-18.38 18.38,-18.38 h 179.24 c 10.15,0 18.38,8.23 18.38,18.38 v 54.24 c 0,10.15 -8.23,18.38 -18.38,18.38 h -179.24 c -10.15,0 -18.38,-8.23 -18.38,-18.38 z" /><path
         style="fill:#61186d;fill-rule:evenodd"
         inkscape:connector-curvature="0"
         id="path828"
         d="m 2452,1483.38 c 0,-10.15 8.23,-18.38 18.38,-18.38 h 179.24 c 10.15,0 18.38,8.23 18.38,18.38 v 54.24 c 0,10.15 -8.23,18.38 -18.38,18.38 h -179.24 c -10.15,0 -18.38,-8.23 -18.38,-18.38 z" /><path
         style="fill:#61186d;fill-rule:evenodd"
         inkscape:connector-curvature="0"
         id="path830"
         d="m 1732,909.378 c 0,-10.15 8.23,-18.378 18.38,-18.378 h 179.24 c 10.15,0 18.38,8.228 18.38,18.378 v 54.245 c 0,10.149 -8.23,18.377 -18.38,18.377 h -179.24 c -10.15,0 -18.38,-8.228 -18.38,-18.377 z" /><path
         style="fill:#61186d;fill-rule:evenodd"
         inkscape:connector-curvature="0"
         id="path832"
         d="m 1732,1053.38 c 0,-10.15 8.23,-18.38 18.38,-18.38 h 179.24 c 10.15,0 18.38,8.23 18.38,18.38 v 54.24 c 0,10.15 -8.23,18.38 -18.38,18.38 h -179.24 c -10.15,0 -18.38,-8.23 -18.38,-18.38 z" /><path
         style="fill:#61186d;fill-rule:evenodd"
         inkscape:connector-curvature="0"
         id="path834"
         d="m 1732,1196.38 c 0,-10.15 8.23,-18.38 18.38,-18.38 h 179.24 c 10.15,0 18.38,8.23 18.38,18.38 v 54.24 c 0,10.15 -8.23,18.38 -18.38,18.38 h -179.24 c -10.15,0 -18.38,-8.23 -18.38,-18.38 z" /><path
         style="fill:#61186d;fill-rule:evenodd"
         inkscape:connector-curvature="0"
         id="path836"
         d="m 1732,1340.38 c 0,-10.15 8.23,-18.38 18.38,-18.38 h 179.24 c 10.15,0 18.38,8.23 18.38,18.38 v 54.24 c 0,10.15 -8.23,18.38 -18.38,18.38 h -179.24 c -10.15,0 -18.38,-8.23 -18.38,-18.38 z" /><path
         style="fill:#61186d;fill-rule:evenodd"
         inkscape:connector-curvature="0"
         id="path838"
         d="m 1732,1483.38 c 0,-10.15 8.23,-18.38 18.38,-18.38 h 179.24 c 10.15,0 18.38,8.23 18.38,18.38 v 54.24 c 0,10.15 -8.23,18.38 -18.38,18.38 h -179.24 c -10.15,0 -18.38,-8.23 -18.38,-18.38 z" /></g><path
       inkscape:connector-curvature="0"
       id="path901"
       style="font-style:normal;font-variant:normal;font-weight:normal;font-stretch:normal;font-family:'Source Sans 3';-inkscape-font-specification:'Source Sans 3, ';fill:#61186d;fill-opacity:1;stroke:none;stroke-width:20.12939644"
       d="m 484.35303,873.55813 q -32.20704,0 -57.16749,-16.10351 -24.15528,-15.29835 -24.15528,-45.08986 0,-24.96045 16.10352,-45.89502 16.10352,-21.73974 45.08985,-34.62256 28.98633,-13.68799 66.02442,-13.68799 16.10352,0 28.98632,3.22071 13.68799,2.41553 19.32423,6.4414 V 295.44187 h 40.25879 q 4.02587,10.4673 8.85693,18.51904 5.63624,7.24659 16.10352,16.10353 11.27246,8.85692 31.40186,23.35009 54.75195,38.64844 73.271,75.68654 18.51904,36.2329 18.51904,82.12793 0,31.40185 -8.85693,59.58302 -8.05175,27.37598 -16.90869,45.89502 l -28.18115,-10.46729 q 6.4414,-19.32422 8.05176,-35.42773 2.41552,-16.90871 2.41552,-38.64844 0,-37.84328 -26.57079,-71.66066 -25.76565,-33.81739 -74.0762,-49.11573 v 327.70657 q 0,44.28468 -19.32421,74.07619 -19.32422,29.7915 -50.72608,45.08984 -31.40185,15.29834 -68.43994,15.29834 z" /></g></svg>