<?xml version="1.0" encoding="UTF-8" standalone="no"?>
<svg
   xmlns:dc="http://purl.org/dc/elements/1.1/"
   xmlns:cc="http://creativecommons.org/ns#"
   xmlns:rdf="http://www.w3.org/1999/02/22-rdf-syntax-ns#"
   xmlns:svg="http://www.w3.org/2000/svg"
   xmlns="http://www.w3.org/2000/svg"
   xmlns:sodipodi="http://sodipodi.sourceforge.net/DTD/sodipodi-0.dtd"
   xmlns:inkscape="http://www.inkscape.org/namespaces/inkscape"
   width="790"
   height="250"
   overflow="hidden"
   version="1.1"
   id="svg28"
   sodipodi:docname="muscorpus_logo.svg"
   style="overflow:hidden"
   inkscape:version="0.92.4 (5da689c313, 2019-01-14)">
  <metadata
     id="metadata32">
    <rdf:RDF>
      <cc:Work
         rdf:about="">
        <dc:format>image/svg+xml</dc:format>
        <dc:type
           rdf:resource="http://purl.org/dc/dcmitype/StillImage" />
        <dc:title />
      </cc:Work>
    </rdf:RDF>
  </metadata>
  <sodipodi:namedview
     pagecolor="#ffffff"
     bordercolor="#666666"
     borderopacity="1"
     objecttolerance="10"
     gridtolerance="10"
     guidetolerance="10"
     inkscape:pageopacity="0"
     inkscape:pageshadow="2"
     inkscape:window-width="1920"
     inkscape:window-height="1001"
     id="namedview30"
     showgrid="false"
     inkscape:zoom="1.0684077"
     inkscape:cx="362.89577"
     inkscape:cy="17.344607"
     inkscape:window-x="-9"
     inkscape:window-y="-9"
     inkscape:window-maximized="1"
     inkscape:current-layer="svg28" />
  <defs
     id="defs14">
    <clipPath
       id="clip0">
      <rect
         x="261"
         y="241"
         width="791"
         height="277"
         id="rect2" />
    </clipPath>
    <clipPath
       id="clip1">
      <rect
         x="305"
         y="266"
         width="140"
         height="188"
         id="rect5" />
    </clipPath>
    <clipPath
       id="clip2">
      <rect
         x="305"
         y="266"
         width="140"
         height="188"
         id="rect8" />
    </clipPath>
    <clipPath
       id="clip3">
      <rect
         x="305"
         y="266"
         width="140"
         height="188"
         id="rect11" />
    </clipPath>
    <clipPath
       id="clip0-3">
      <rect
         x="1615"
         y="653"
         width="1170"
         height="1169"
         id="rect815" />
    </clipPath>
    <clipPath
       id="clip0-3-3">
      <rect
         x="1615"
         y="653"
         width="1170"
         height="1169"
         id="rect815-6" />
    </clipPath>
  </defs>
  <rect
     style="fill:#ffffff;fill-opacity:1;stroke:none;stroke-width:0.98808074;stroke-opacity:1"
     id="rect4570"
     width="790"
     height="250"
     x="0"
     y="0"
     inkscape:label="bg" />
  <g
     id="g4028"
     transform="matrix(0.94486262,0,0,0.94486262,17.054949,5.9689483)">
    <g
       transform="matrix(0.17574848,0,0,0.17574848,-9.305055,22.275013)"
       id="g917"
       style="overflow:hidden">
      <g
         clip-path="url(#clip0-3-3)"
         transform="translate(-1615,-639)"
         id="g840">
        <path
           d="m 2452,909.378 c 0,-10.15 8.23,-18.378 18.38,-18.378 h 179.24 c 10.15,0 18.38,8.228 18.38,18.378 v 54.245 c 0,10.149 -8.23,18.377 -18.38,18.377 h -179.24 c -10.15,0 -18.38,-8.228 -18.38,-18.377 z"
           id="path820"
           inkscape:connector-curvature="0"
           style="fill:#61186d;fill-rule:evenodd" />
        <path
           d="m 2452,1053.38 c 0,-10.15 8.23,-18.38 18.38,-18.38 h 179.24 c 10.15,0 18.38,8.23 18.38,18.38 v 54.24 c 0,10.15 -8.23,18.38 -18.38,18.38 h -179.24 c -10.15,0 -18.38,-8.23 -18.38,-18.38 z"
           id="path822"
           inkscape:connector-curvature="0"
           style="fill:#61186d;fill-rule:evenodd" />
        <path
           d="m 2452,1196.38 c 0,-10.15 8.23,-18.38 18.38,-18.38 h 179.24 c 10.15,0 18.38,8.23 18.38,18.38 v 54.24 c 0,10.15 -8.23,18.38 -18.38,18.38 h -179.24 c -10.15,0 -18.38,-8.23 -18.38,-18.38 z"
           id="path824"
           inkscape:connector-curvature="0"
           style="fill:#61186d;fill-rule:evenodd" />
        <path
           d="m 2452,1340.38 c 0,-10.15 8.23,-18.38 18.38,-18.38 h 179.24 c 10.15,0 18.38,8.23 18.38,18.38 v 54.24 c 0,10.15 -8.23,18.38 -18.38,18.38 h -179.24 c -10.15,0 -18.38,-8.23 -18.38,-18.38 z"
           id="path826"
           inkscape:connector-curvature="0"
           style="fill:#61186d;fill-rule:evenodd" />
        <path
           d="m 2452,1483.38 c 0,-10.15 8.23,-18.38 18.38,-18.38 h 179.24 c 10.15,0 18.38,8.23 18.38,18.38 v 54.24 c 0,10.15 -8.23,18.38 -18.38,18.38 h -179.24 c -10.15,0 -18.38,-8.23 -18.38,-18.38 z"
           id="path828"
           inkscape:connector-curvature="0"
           style="fill:#61186d;fill-rule:evenodd" />
        <path
           d="m 1732,909.378 c 0,-10.15 8.23,-18.378 18.38,-18.378 h 179.24 c 10.15,0 18.38,8.228 18.38,18.378 v 54.245 c 0,10.149 -8.23,18.377 -18.38,18.377 h -179.24 c -10.15,0 -18.38,-8.228 -18.38,-18.377 z"
           id="path830"
           inkscape:connector-curvature="0"
           style="fill:#61186d;fill-rule:evenodd" />
        <path
           d="m 1732,1053.38 c 0,-10.15 8.23,-18.38 18.38,-18.38 h 179.24 c 10.15,0 18.38,8.23 18.38,18.38 v 54.24 c 0,10.15 -8.23,18.38 -18.38,18.38 h -179.24 c -10.15,0 -18.38,-8.23 -18.38,-18.38 z"
           id="path832"
           inkscape:connector-curvature="0"
           style="fill:#61186d;fill-rule:evenodd" />
        <path
           d="m 1732,1196.38 c 0,-10.15 8.23,-18.38 18.38,-18.38 h 179.24 c 10.15,0 18.38,8.23 18.38,18.38 v 54.24 c 0,10.15 -8.23,18.38 -18.38,18.38 h -179.24 c -10.15,0 -18.38,-8.23 -18.38,-18.38 z"
           id="path834"
           inkscape:connector-curvature="0"
           style="fill:#61186d;fill-rule:evenodd" />
        <path
           d="m 1732,1340.38 c 0,-10.15 8.23,-18.38 18.38,-18.38 h 179.24 c 10.15,0 18.38,8.23 18.38,18.38 v 54.24 c 0,10.15 -8.23,18.38 -18.38,18.38 h -179.24 c -10.15,0 -18.38,-8.23 -18.38,-18.38 z"
           id="path836"
           inkscape:connector-curvature="0"
           style="fill:#61186d;fill-rule:evenodd" />
        <path
           d="m 1732,1483.38 c 0,-10.15 8.23,-18.38 18.38,-18.38 h 179.24 c 10.15,0 18.38,8.23 18.38,18.38 v 54.24 c 0,10.15 -8.23,18.38 -18.38,18.38 h -179.24 c -10.15,0 -18.38,-8.23 -18.38,-18.38 z"
           id="path838"
           inkscape:connector-curvature="0"
           style="fill:#61186d;fill-rule:evenodd" />
      </g>
      <path
         d="m 484.35303,873.55813 q -32.20704,0 -57.16749,-16.10351 -24.15528,-15.29835 -24.15528,-45.08986 0,-24.96045 16.10352,-45.89502 16.10352,-21.73974 45.08985,-34.62256 28.98633,-13.68799 66.02442,-13.68799 16.10352,0 28.98632,3.22071 13.68799,2.41553 19.32423,6.4414 V 295.44187 h 40.25879 q 4.02587,10.4673 8.85693,18.51904 5.63624,7.24659 16.10352,16.10353 11.27246,8.85692 31.40186,23.35009 54.75195,38.64844 73.271,75.68654 18.51904,36.2329 18.51904,82.12793 0,31.40185 -8.85693,59.58302 -8.05175,27.37598 -16.90869,45.89502 l -28.18115,-10.46729 q 6.4414,-19.32422 8.05176,-35.42773 2.41552,-16.90871 2.41552,-38.64844 0,-37.84328 -26.57079,-71.66066 -25.76565,-33.81739 -74.0762,-49.11573 v 327.70657 q 0,44.28468 -19.32421,74.07619 -19.32422,29.7915 -50.72608,45.08984 -31.40185,15.29834 -68.43994,15.29834 z"
         style="font-style:normal;font-variant:normal;font-weight:normal;font-stretch:normal;font-family:'Source Sans 3';-inkscape-font-specification:'Source Sans 3, ';fill:#61186d;fill-opacity:1;stroke:none;stroke-width:20.12939644"
         id="path901"
         inkscape:connector-curvature="0" />
    </g>
    <g
       aria-label="MusCorpus"
       style="font-style:normal;font-weight:normal;font-size:119.38195801px;line-height:1.25;font-family:sans-serif;letter-spacing:0px;word-spacing:0px;fill:#000000;fill-opacity:1;stroke:none;stroke-width:2.98454905"
       id="text3854">
      <path
         d="M 209.74093,159.60406 V 82.722084 h 13.37078 l 24.35392,49.782276 24.23453,-49.782276 h 13.37078 v 76.881976 h -12.89325 v -55.75137 l -20.77246,42.49998 h -7.87921 l -20.89184,-42.49998 v 55.75137 z"
         style="font-style:normal;font-variant:normal;font-weight:normal;font-stretch:normal;font-family:Kanit;-inkscape-font-specification:Kanit;stroke-width:2.98454905"
         id="path4584"
         inkscape:connector-curvature="0" />
      <path
         d="m 320.62438,160.79788 q -10.14747,0 -15.63904,-5.61095 -5.37218,-5.61095 -5.37218,-16.47471 v -35.6952 h 13.01263 v 35.6952 q 0,6.32725 3.10393,9.3118 3.10393,2.98454 9.55056,2.98454 4.77528,0 8.83426,-1.79073 4.05899,-1.79072 7.04354,-4.77527 v -41.42554 h 12.89325 v 56.58704 h -11.81881 l -0.59691,-5.84971 q -3.82023,2.98455 -9.07303,5.01404 -5.25281,2.02949 -11.9382,2.02949 z"
         style="font-style:normal;font-variant:normal;font-weight:normal;font-stretch:normal;font-family:Kanit;-inkscape-font-specification:Kanit;stroke-width:2.98454905"
         id="path4586"
         inkscape:connector-curvature="0" />
      <path
         d="m 388.09011,160.79788 q -5.84972,0 -11.22191,-0.83567 -5.2528,-0.83567 -8.71488,-2.02949 v -10.98314 q 4.05899,1.55196 8.95365,2.38764 4.89466,0.83567 9.31179,0.83567 6.68539,0 9.55056,-1.19382 2.86516,-1.19382 2.86516,-4.6559 0,-2.50702 -1.79072,-3.9396 -1.67135,-1.43258 -5.13343,-2.6264 -3.34269,-1.19382 -8.5955,-2.86517 -5.01404,-1.67135 -8.71488,-3.58146 -3.70084,-2.02949 -5.73034,-5.13342 -2.02949,-3.10393 -2.02949,-8.11798 0,-7.75982 5.61095,-11.93819 5.61095,-4.29775 18.02668,-4.29775 4.89466,0 9.31179,0.71629 4.41713,0.71629 7.52106,1.79073 v 10.86376 q -3.34269,-1.3132 -7.40168,-2.0295 -3.9396,-0.71629 -7.40168,-0.71629 -6.20786,0 -9.43117,1.07444 -3.10393,1.07444 -3.10393,4.29775 0,3.34269 3.22331,4.77528 3.34269,1.3132 10.62499,3.70084 6.68539,2.02949 10.625,4.29775 3.9396,2.26826 5.61095,5.49157 1.79073,3.10393 1.79073,8.11797 0,8.35674 -6.08848,12.53511 -6.08848,4.05898 -17.66853,4.05898 z"
         style="font-style:normal;font-variant:normal;font-weight:normal;font-stretch:normal;font-family:Kanit;-inkscape-font-specification:Kanit;stroke-width:2.98454905"
         id="path4588"
         inkscape:connector-curvature="0" />
      <path
         d="m 460.77507,160.79788 q -18.98173,0 -28.77105,-10.38623 -9.66994,-10.38623 -9.66994,-28.05476 0,-12.65448 4.05898,-21.72751 4.17837,-9.192413 12.65449,-14.087073 8.47612,-5.014043 21.60814,-5.014043 6.68539,0 12.17696,1.074438 5.61095,0.955056 10.38623,2.626403 v 11.341286 q -4.77528,-1.910111 -10.26685,-2.865167 -5.37219,-1.074438 -11.34129,-1.074438 -14.32583,0 -20.29493,7.640444 -5.84972,7.64045 -5.84972,22.08566 0,13.49017 6.44663,20.5337 6.44662,6.92415 19.93679,6.92415 5.49157,0 10.98314,-0.83567 5.61095,-0.95505 10.50561,-2.86517 v 11.46067 q -4.77528,1.55197 -10.38623,2.38764 -5.49157,0.83567 -12.17696,0.83567 z"
         style="font-style:normal;font-variant:normal;font-weight:normal;font-stretch:normal;font-family:Kanit;-inkscape-font-specification:Kanit;stroke-width:2.98454905"
         id="path4590"
         inkscape:connector-curvature="0" />
      <path
         d="m 522.70446,160.79788 q -15.28089,0 -22.44381,-7.64044 -7.04353,-7.64045 -7.04353,-21.8469 0,-14.20645 7.16292,-21.8469 7.16291,-7.64044 22.32442,-7.64044 15.28089,0 22.44381,7.64044 7.16292,7.64045 7.16292,21.8469 0,14.20645 -7.16292,21.8469 -7.04354,7.64044 -22.44381,7.64044 z m 0,-10.98314 q 8.95365,0 12.65449,-4.29775 3.82022,-4.41713 3.82022,-14.20645 0,-9.78932 -3.82022,-14.08707 -3.70084,-4.29775 -12.65449,-4.29775 -8.83426,0 -12.65449,4.29775 -3.70084,4.29775 -3.70084,14.08707 0,9.78932 3.70084,14.20645 3.82023,4.29775 12.65449,4.29775 z"
         style="font-style:normal;font-variant:normal;font-weight:normal;font-stretch:normal;font-family:Kanit;-inkscape-font-specification:Kanit;stroke-width:2.98454905"
         id="path4592"
         inkscape:connector-curvature="0" />
      <path
         d="m 564.85561,159.60406 v -56.58704 h 11.9382 l 0.71629,6.566 q 4.05899,-2.6264 9.66994,-4.77527 5.61095,-2.14888 11.10252,-2.98455 v 9.9087 q -3.34269,0.59691 -7.2823,1.79073 -3.82022,1.07444 -7.2823,2.50702 -3.46208,1.3132 -5.84971,2.74579 v 40.82862 z"
         style="font-style:normal;font-variant:normal;font-weight:normal;font-stretch:normal;font-family:Kanit;-inkscape-font-specification:Kanit;stroke-width:2.98454905"
         id="path4594"
         inkscape:connector-curvature="0" />
      <path
         d="m 607.75851,185.39057 v -82.37355 h 11.2219 l 0.71629,5.61095 q 3.82022,-3.46208 8.35674,-5.13343 4.53651,-1.67134 10.74437,-1.67134 12.17696,0 18.98174,6.68539 6.80477,6.566 6.80477,21.8469 0,15.28089 -7.04354,22.92133 -7.04353,7.52106 -19.22049,7.52106 -10.26685,0 -17.54915,-4.77527 v 29.36796 z m 27.21908,-34.38201 q 16.47471,0 16.47471,-20.77246 0,-10.02808 -3.70084,-14.20645 -3.70084,-4.29775 -12.41572,-4.29775 -8.71489,0 -14.5646,5.9691 v 28.29352 q 2.74578,2.26826 6.08848,3.70084 3.46208,1.3132 8.11797,1.3132 z"
         style="font-style:normal;font-variant:normal;font-weight:normal;font-stretch:normal;font-family:Kanit;-inkscape-font-specification:Kanit;stroke-width:2.98454905"
         id="path4596"
         inkscape:connector-curvature="0" />
      <path
         d="m 697.65686,160.79788 q -10.14747,0 -15.63904,-5.61095 -5.37219,-5.61095 -5.37219,-16.47471 v -35.6952 h 13.01264 v 35.6952 q 0,6.32725 3.10393,9.3118 3.10393,2.98454 9.55056,2.98454 4.77527,0 8.83426,-1.79073 4.05899,-1.79072 7.04354,-4.77527 v -41.42554 h 12.89325 v 56.58704 h -11.81882 l -0.59691,-5.84971 q -3.82022,2.98455 -9.07302,5.01404 -5.25281,2.02949 -11.9382,2.02949 z"
         style="font-style:normal;font-variant:normal;font-weight:normal;font-stretch:normal;font-family:Kanit;-inkscape-font-specification:Kanit;stroke-width:2.98454905"
         id="path4598"
         inkscape:connector-curvature="0" />
      <path
         d="m 765.12256,160.79788 q -5.84971,0 -11.2219,-0.83567 -5.25281,-0.83567 -8.71488,-2.02949 v -10.98314 q 4.05898,1.55196 8.95364,2.38764 4.89466,0.83567 9.3118,0.83567 6.68539,0 9.55055,-1.19382 2.86517,-1.19382 2.86517,-4.6559 0,-2.50702 -1.79073,-3.9396 -1.67135,-1.43258 -5.13342,-2.6264 -3.3427,-1.19382 -8.5955,-2.86517 -5.01405,-1.67135 -8.71489,-3.58146 -3.70084,-2.02949 -5.73033,-5.13342 -2.02949,-3.10393 -2.02949,-8.11798 0,-7.75982 5.61095,-11.93819 5.61095,-4.29775 18.02667,-4.29775 4.89466,0 9.3118,0.71629 4.41713,0.71629 7.52106,1.79073 v 10.86376 q -3.3427,-1.3132 -7.40168,-2.0295 -3.93961,-0.71629 -7.40168,-0.71629 -6.20787,0 -9.43118,1.07444 -3.10393,1.07444 -3.10393,4.29775 0,3.34269 3.22331,4.77528 3.3427,1.3132 10.625,3.70084 6.68539,2.02949 10.62499,4.29775 3.93961,2.26826 5.61095,5.49157 1.79073,3.10393 1.79073,8.11797 0,8.35674 -6.08848,12.53511 -6.08848,4.05898 -17.66853,4.05898 z"
         style="font-style:normal;font-variant:normal;font-weight:normal;font-stretch:normal;font-family:Kanit;-inkscape-font-specification:Kanit;stroke-width:2.98454905"
         id="path4600"
         inkscape:connector-curvature="0" />
    </g>
  </g>
</svg>
